<?xml version="1.0" encoding="UTF-8"?>
<svg xmlns="http://www.w3.org/2000/svg" xmlns:xlink="http://www.w3.org/1999/xlink" viewBox="0 0 23 23" width="23px" height="23px">
<g id="surface17394512">
<path style=" stroke:none;fill-rule:nonzero;fill:rgb(100%,100%,100%);fill-opacity:1;" d="M 21.222656 3.015625 C 20.878906 2.722656 20.335938 2.679688 19.777344 2.90625 L 19.773438 2.90625 C 19.1875 3.140625 3.09375 10.042969 2.441406 10.324219 C 2.320312 10.367188 1.28125 10.753906 1.386719 11.617188 C 1.484375 12.398438 2.320312 12.722656 2.421875 12.757812 L 6.511719 14.160156 C 6.785156 15.0625 7.785156 18.394531 8.003906 19.109375 C 8.144531 19.550781 8.367188 20.136719 8.761719 20.253906 C 9.109375 20.390625 9.453125 20.265625 9.675781 20.09375 L 12.175781 17.773438 L 16.214844 20.921875 L 16.308594 20.980469 C 16.582031 21.101562 16.847656 21.160156 17.097656 21.160156 C 17.289062 21.160156 17.476562 21.125 17.65625 21.050781 C 18.257812 20.804688 18.5 20.226562 18.527344 20.160156 L 21.542969 4.488281 C 21.726562 3.648438 21.46875 3.222656 21.222656 3.015625 Z M 10.121094 14.71875 L 8.738281 18.398438 L 7.359375 13.800781 L 17.941406 5.980469 Z M 10.121094 14.71875 "/>
</g>
</svg>
