<svg width="23" height="20" viewBox="0 0 23 20" fill="none" xmlns="http://www.w3.org/2000/svg">
<path d="M5.45282 0.516071C4.11399 0.638532 2.88781 1.15064 1.9216 1.98931C1.05937 2.73521 0.565436 3.52564 0.309802 4.57213C0.236144 4.86529 0.231812 5.22525 0.231812 9.9901C0.231812 14.7549 0.236144 15.1149 0.309802 15.4081C0.569769 16.4583 1.06371 17.2487 1.9216 17.9909C2.79249 18.7442 3.74137 19.1821 4.97622 19.4047C5.31851 19.4678 5.73879 19.4715 11.3021 19.4715C17.9573 19.4715 17.5153 19.4864 18.4599 19.2081C19.3134 18.9557 19.959 18.6069 20.6436 18.0243C21.5188 17.2858 22.0344 16.4657 22.2944 15.4081C22.368 15.1149 22.3724 14.7549 22.3724 9.9901C22.3724 4.33092 22.3897 4.70572 22.0864 3.919C21.8004 3.16568 21.3672 2.57935 20.6609 1.97447C19.803 1.2397 18.9451 0.835212 17.7363 0.59029C17.3507 0.51236 17.29 0.51236 11.4754 0.504938C8.24747 0.504938 5.53515 0.508649 5.45282 0.516071ZM15.5699 3.93384C16.965 4.26783 18.0049 5.16588 18.3732 6.35338L18.4729 6.66881V9.9901V13.3114L18.3732 13.6268C18.0049 14.8254 16.9477 15.7309 15.5482 16.0463L15.1799 16.1317H11.3021C7.74487 16.1317 7.39825 16.128 7.12961 16.0649C5.68679 15.7495 4.60793 14.8403 4.23098 13.6268L4.13132 13.3114V9.9901V6.66881L4.23098 6.35338C4.62526 5.07681 5.82111 4.11939 7.30726 3.8856C7.58022 3.84478 8.33413 3.83736 11.4321 3.84107C15.2189 3.84849 15.2233 3.84849 15.5699 3.93384Z" fill="white"/>
<path d="M7.36894 5.01758C6.89667 5.12519 6.55871 5.29219 6.19042 5.61133C5.81347 5.93047 5.62283 6.21621 5.49718 6.63555C5.41486 6.91016 5.41052 7.05488 5.41052 9.99023C5.41052 12.9256 5.41486 13.0703 5.49718 13.3449C5.62283 13.7643 5.81347 14.05 6.19042 14.3691C6.56304 14.692 6.89667 14.8553 7.38627 14.9629C7.7069 15.0334 7.87588 15.0371 11.3031 15.0371C14.7304 15.0371 14.8993 15.0334 15.22 14.9629C15.7096 14.8553 16.0432 14.692 16.4158 14.3691C16.7928 14.05 16.9834 13.7643 17.1091 13.3449C17.1914 13.0703 17.1957 12.9256 17.1957 9.99023C17.1957 7.05488 17.1914 6.91016 17.1091 6.63555C16.9834 6.21621 16.7928 5.93047 16.4158 5.61133C16.0432 5.28848 15.7096 5.12519 15.22 5.01758C14.8993 4.94707 14.7347 4.94336 11.2858 4.94707C7.88455 4.94707 7.66791 4.95078 7.36894 5.01758ZM15.3326 6.31641C15.5276 6.40176 15.6792 6.61328 15.6792 6.79883C15.6792 6.98438 15.5276 7.1959 15.3326 7.28125C15.2416 7.32207 15.103 7.35547 15.0293 7.35547C14.8127 7.35547 14.5657 7.22559 14.4661 7.05859C14.3014 6.78398 14.3967 6.49082 14.7087 6.33125C14.9167 6.22363 15.1073 6.21992 15.3326 6.31641ZM11.94 7.26641C12.59 7.38144 13.1316 7.63379 13.5952 8.03457C14.0198 8.40566 14.2971 8.81016 14.4531 9.3C14.5527 9.61172 14.5527 10.3687 14.4531 10.6805C14.1194 11.7195 13.1532 12.4988 11.9444 12.7141C9.69565 13.1111 7.65924 11.3707 8.12285 9.44102C8.48247 7.9418 10.2069 6.9584 11.94 7.26641Z" fill="white"/>
<path d="M10.8482 8.37249C10.4885 8.44671 10.2156 8.5803 9.93394 8.8178C9.16704 9.47835 9.16704 10.5063 9.93394 11.1594C10.7095 11.8199 11.9054 11.8199 12.6679 11.1631C13.4392 10.4989 13.4392 9.47835 12.6723 8.8178C12.1783 8.39476 11.5154 8.23147 10.8482 8.37249Z" fill="white"/>
</svg>
