<svg width="376" height="40" viewBox="0 0 376 40" fill="none" xmlns="http://www.w3.org/2000/svg">
<path d="M183.125 18.5647C177.565 25.7074 172.049 32.7945 166.442 39.9982C169.111 39.9982 171.609 40.0087 174.106 39.9793C174.312 39.9771 174.566 39.7356 174.707 39.5541C177.522 35.9281 180.323 32.2947 183.127 28.6631C185.932 32.2947 188.733 35.9281 191.547 39.5541C191.689 39.7356 191.943 39.9771 192.148 39.9793C194.646 40.0087 197.144 39.9982 199.812 39.9982C194.205 32.7945 188.689 25.7074 183.13 18.5647V18.5581C183.129 18.5594 183.128 18.5603 183.127 18.5616C183.126 18.5603 183.126 18.5594 183.125 18.5581V18.5647Z" fill="white"/>
<path d="M201.867 1.1452C201.781 1.14608 201.687 1.18992 201.596 1.25261C198.68 4.99999 195.77 8.73817 192.849 12.4913V12.4978C192.848 12.4965 192.847 12.4956 192.846 12.4943C192.845 12.4956 192.844 12.4965 192.844 12.4978V12.4913C190.845 9.92315 188.85 7.36074 186.856 4.79833H186.859C185.617 3.20258 184.375 1.60639 183.13 0.00713539V0.000558853C183.129 0.00187492 183.128 0.0027504 183.127 0.00406647C183.126 0.0027504 183.126 0.00187492 183.125 0.000558853V0.00713539C181.88 1.60639 180.638 3.20258 179.396 4.79833H179.399C177.404 7.36074 175.41 9.92315 173.411 12.4913V12.4978C173.41 12.4965 173.409 12.4956 173.409 12.4943C173.408 12.4956 173.407 12.4965 173.406 12.4978V12.4913C170.485 8.73817 167.575 4.99999 164.659 1.25261C164.568 1.18992 164.474 1.14608 164.388 1.1452C161.89 1.11583 159.392 1.12635 156.724 1.12635C162.331 8.33003 167.846 15.4171 173.406 22.5598V22.5664C173.407 22.5651 173.408 22.5642 173.409 22.5629C173.409 22.5642 173.41 22.5651 173.411 22.5664V22.5598C176.655 18.3916 179.886 14.2404 183.127 10.0761C186.368 14.2404 189.6 18.3916 192.844 22.5598V22.5664C192.844 22.5651 192.845 22.5642 192.846 22.5629C192.847 22.5642 192.848 22.5651 192.849 22.5664V22.5598C198.408 15.4171 203.924 8.33003 209.531 1.12635C206.863 1.12635 204.364 1.11583 201.867 1.1452Z" fill="white"/>
<path d="M9.15173 25.0322L0.021759 13.6103H5.18587L9.52078 19.1236L15.2203 13.0891L20.9198 19.1236L25.2542 13.6103H30.4188L21.2884 25.0322L15.2203 18.5554L9.15173 25.0322Z" fill="white"/>
<path d="M37.1696 20.5143H42.3342L39.7519 18.0497L37.1696 20.5143ZM46.7792 24.7637L45.1376 23.1999H34.3477L32.7057 24.7637H26.7298L39.7519 13.0104L52.7556 24.7637H46.7792Z" fill="white"/>
<path d="M58.842 17.0857V19.3131H68.5811C69.1713 19.3131 69.5864 19.2263 69.826 19.0523C70.066 18.8787 70.1858 18.6126 70.1858 18.2548V18.1755C70.1858 17.8072 70.066 17.5333 69.826 17.3544C69.5864 17.1755 69.1713 17.0857 68.5811 17.0857H58.842ZM74.9077 18.1286C74.9077 20.1294 73.8809 21.4091 71.8273 21.9672L74.1696 24.7637H68.7285L66.9765 22.3306H58.842V24.7637H54.1017V13.6101H68.5443C72.7865 13.6101 74.9077 15.0901 74.9077 18.0492V18.1286Z" fill="white"/>
<path d="M82.4699 17.0857V19.3131H92.2089C92.7991 19.3131 93.2142 19.2263 93.4538 19.0523C93.6938 18.8787 93.8136 18.6126 93.8136 18.2548V18.1755C93.8136 17.8072 93.6938 17.5333 93.4538 17.3544C93.2142 17.1755 92.7991 17.0857 92.2089 17.0857H82.4699ZM98.5355 18.1286C98.5355 20.1294 97.5087 21.4091 95.4551 21.9672L97.7974 24.7637H92.3563L90.6043 22.3306H82.4699V24.7637H77.7296V13.6101H92.1721C96.4143 13.6101 98.5355 15.0901 98.5355 18.0492V18.1286Z" fill="white"/>
<path d="M101.358 13.6105H106.098V24.7637H101.358V13.6105Z" fill="white"/>
<path d="M116.722 21.2881H123.491C124.598 21.2881 125.385 21.1193 125.852 20.7826C126.319 20.4455 126.553 19.94 126.553 19.2658V19.1395C126.553 18.4447 126.322 17.9287 125.861 17.5911C125.4 17.2544 124.61 17.0857 123.491 17.0857H116.722C115.603 17.0857 114.813 17.2544 114.352 17.5911C113.89 17.9287 113.66 18.4447 113.66 19.1395V19.2658C113.66 19.94 113.893 20.4455 114.361 20.7826C114.828 21.1193 115.615 21.2881 116.722 21.2881ZM116.888 24.7637C114.17 24.7637 112.163 24.3029 110.866 23.381C109.568 22.4599 108.92 21.0934 108.92 19.2816V19.1553C108.92 15.4588 111.576 13.6101 116.888 13.6101H123.325C128.637 13.6101 131.293 15.4588 131.293 19.1553V19.2816C131.293 21.0934 130.644 22.4599 129.347 23.381C128.05 24.3029 126.042 24.7637 123.325 24.7637H116.888Z" fill="white"/>
<path d="M138.856 17.0857V19.3131H148.595C149.185 19.3131 149.6 19.2263 149.839 19.0523C150.08 18.8787 150.199 18.6126 150.199 18.2548V18.1755C150.199 17.8072 150.08 17.5333 149.839 17.3544C149.6 17.1755 149.185 17.0857 148.595 17.0857H138.856ZM154.921 18.1286C154.921 20.1294 153.894 21.4091 151.841 21.9672L154.183 24.7637H148.742L146.99 22.3306H138.856V24.7637H134.115V13.6101H148.558C152.8 13.6101 154.921 15.0901 154.921 18.0492V18.1286Z" fill="white"/>
<path d="M217.006 20.5143H222.17L219.588 18.0497L217.006 20.5143ZM226.615 24.7637L224.973 23.1999H214.183L212.542 24.7637H206.566L219.588 13.0104L232.591 24.7637H226.615Z" fill="white"/>
<path d="M233.938 24.7637V13.6105H238.678V21.2881H252.992V24.7637H233.938Z" fill="white"/>
<path d="M255.629 24.7637V13.6105H260.369V21.2881H274.683V24.7637H255.629Z" fill="white"/>
<path d="M277.32 13.6105H282.061V24.7637H277.32V13.6105Z" fill="white"/>
<path d="M293.847 20.5143H299.012L296.429 18.0497L293.847 20.5143ZM303.457 24.7637L301.815 23.1999H291.025L289.383 24.7637H283.407L296.429 13.0104L309.433 24.7637H303.457Z" fill="white"/>
<path d="M331.713 25.0791L315.519 18.807V24.763H310.779V13.2938L326.973 19.597V13.6099H331.713V25.0791Z" fill="white"/>
<path d="M342.504 24.7637C339.786 24.7637 337.779 24.3029 336.481 23.3814C335.184 22.4599 334.536 21.0934 334.536 19.2816V19.1553C334.536 15.4588 337.192 13.6105 342.504 13.6105H354.087V17.0857H342.338C341.219 17.0857 340.429 17.2544 339.968 17.5916C339.507 17.9287 339.276 18.4447 339.276 19.1395V19.2658C339.276 19.94 339.509 20.4455 339.977 20.7826C340.444 21.1193 341.231 21.2881 342.338 21.2881H354.087V24.7637H342.504Z" fill="white"/>
<path d="M357.057 24.7637V13.6105H375.778V16.6438H361.798V17.8441H375.778V20.5297H361.798V21.7462H375.778V24.7637H357.057Z" fill="white"/>
</svg>
