<svg width="28" height="17" viewBox="0 0 28 17" fill="none" xmlns="http://www.w3.org/2000/svg">
<path d="M9.15286 0.545361C6.75021 0.726151 4.45931 1.84811 2.91963 3.59752C1.62207 5.07575 0.187931 9.24455 0.00788763 12.0574C-0.103864 13.8281 0.970189 15.0671 3.33559 15.8859C4.39722 16.2528 5.71341 16.4974 6.63225 16.4921L6.97371 16.4868L7.62559 15.7955C7.98568 15.4127 8.31472 15.0564 8.35818 15.0032C8.42647 14.9182 8.38922 14.8969 7.95464 14.764C6.83712 14.429 5.73203 13.8494 4.98702 13.2166C4.72627 12.9933 4.52139 12.8019 4.54002 12.7912C4.55243 12.7806 4.81319 12.8657 5.1174 12.988C6.27216 13.4453 8.12847 14.0036 9.52536 14.312C12.5985 14.9926 15.355 15.0192 18.0247 14.3917C19.3222 14.0887 20.7315 13.5676 21.9856 12.9295C22.2774 12.7859 22.5382 12.6636 22.5692 12.6636C22.6623 12.6636 21.8614 13.323 21.3958 13.6207C20.8433 13.977 19.7941 14.4449 19.0677 14.6629C18.7821 14.748 18.5524 14.8331 18.5524 14.8544C18.5524 14.8756 18.838 15.1947 19.1918 15.5669C19.5395 15.9338 19.8561 16.2741 19.8996 16.3219C19.9617 16.3858 20.0858 16.3964 20.6136 16.3698C22.6065 16.2741 24.9346 15.4978 25.99 14.5779C26.9585 13.7377 27.3062 12.754 27.1262 11.3874C26.7226 8.39377 25.4872 5.04384 24.2579 3.62411C22.8424 1.98105 20.8495 0.944162 18.4903 0.619803C17.6087 0.502822 17.4287 0.513456 17.2238 0.694247L17.0561 0.843133L17.3542 0.912258C18.4034 1.15686 20.3776 1.88533 21.3648 2.3958C21.8739 2.66167 22.7741 3.19872 22.7058 3.19872C22.681 3.19872 22.445 3.11364 22.1781 3.0073C20.2038 2.23096 18.0805 1.71518 15.8517 1.45995C14.8273 1.34828 12.0087 1.33233 11.0402 1.43336C8.8176 1.67264 6.70675 2.1512 4.99944 2.80524C4.10543 3.14555 4.16131 3.12959 4.26685 3.01793C4.42827 2.85309 5.64511 2.18842 6.31562 1.90129C6.67571 1.74177 7.29655 1.5078 7.68768 1.37487C8.38302 1.13559 9.83578 0.752738 10.0344 0.752738C10.109 0.752738 10.0965 0.726151 9.98478 0.619803C9.90407 0.545361 9.81095 0.492188 9.7737 0.492188C9.73645 0.497505 9.45707 0.518774 9.15286 0.545361ZM9.76749 7.59085C10.7422 7.80355 11.4127 8.43631 11.599 9.29772C11.8846 10.6696 10.3883 11.983 8.84865 11.7065C7.34621 11.4406 6.50187 10.0741 7.06063 8.82448C7.37105 8.13322 8.34577 7.53768 9.20873 7.51109C9.31428 7.50578 9.56882 7.543 9.76749 7.59085ZM18.7138 7.71315C19.2663 7.93116 19.6264 8.23957 19.9058 8.71813C20.1231 9.10098 20.1355 9.14884 20.1355 9.6274C20.1293 10.2655 19.9803 10.6271 19.5395 11.0365C19.167 11.3874 18.8131 11.5736 18.2978 11.6852C16.7271 12.0308 15.1502 10.7121 15.442 9.30304C15.5723 8.67028 15.9759 8.14386 16.5719 7.84077C17.2921 7.47387 18.006 7.43133 18.7138 7.71315Z" fill="white"/>
</svg>
