<svg width="55" height="42" viewBox="0 0 55 42" fill="none" xmlns="http://www.w3.org/2000/svg">
<path d="M18.5268 0.13958C13.6635 0.614155 9.02635 3.5593 5.90979 8.1515C3.28333 12.0318 0.380402 22.975 0.0159658 30.3588C-0.210236 35.0068 1.96382 38.259 6.75176 40.4086C8.90068 41.3717 11.5648 42.0137 13.4247 41.9998L14.1159 41.9858L15.4354 40.1713C16.1643 39.1663 16.8303 38.2311 16.9183 38.0915C17.0565 37.8682 16.9811 37.8124 16.1014 37.4634C13.8394 36.5841 11.6025 35.0626 10.0945 33.4016C9.56672 32.8154 9.15202 32.3129 9.18972 32.285C9.21485 32.2571 9.74265 32.4804 10.3584 32.8014C12.6958 34.0018 16.4533 35.4674 19.2808 36.277C25.5014 38.0636 31.081 38.1334 36.4848 36.4863C39.1112 35.6907 41.9639 34.3228 44.5024 32.6479C45.093 32.271 45.6208 31.95 45.6836 31.95C45.8722 31.95 44.251 33.6808 43.3085 34.4624C42.1901 35.3976 40.0663 36.6259 38.596 37.1982C38.0179 37.4215 37.5529 37.6449 37.5529 37.7007C37.5529 37.7565 38.131 38.594 38.8473 39.5711C39.5511 40.5342 40.192 41.4275 40.2799 41.5531C40.4056 41.7206 40.6569 41.7485 41.7251 41.6787C45.759 41.4275 50.4716 39.3896 52.6079 36.9749C54.5684 34.7695 55.2721 32.1873 54.9077 28.6C54.0908 20.7417 51.59 11.9481 49.1018 8.22129C46.2366 3.90826 42.2026 1.18644 37.4273 0.334995C35.6428 0.027916 35.2784 0.0558319 34.8636 0.530407L34.5243 0.92123L35.1276 1.10269C37.2513 1.74476 41.2476 3.65701 43.2457 4.99698C44.2762 5.69489 46.0984 7.10465 45.9601 7.10465C45.9099 7.10465 45.4323 6.88132 44.8919 6.60216C40.8957 4.56429 36.5979 3.21035 32.0864 2.54037C30.0129 2.24725 24.3076 2.20537 22.3471 2.47058C17.8482 3.09869 13.5755 4.35491 10.1197 6.07175C8.31004 6.96507 8.42314 6.92319 8.63678 6.63007C8.96351 6.19738 11.4266 4.45262 12.7838 3.69888C13.5127 3.28014 14.7694 2.66599 15.5611 2.31704C16.9686 1.68893 19.9092 0.683945 20.3113 0.683945C20.4621 0.683945 20.437 0.614155 20.2108 0.334995C20.0474 0.13958 19.8589 0 19.7835 0C19.7081 0.013958 19.1426 0.0697899 18.5268 0.13958ZM19.7709 18.634C21.7439 19.1923 23.1011 20.8533 23.4781 23.1145C24.0562 26.7157 21.0276 30.1633 17.9111 29.4375C14.8699 28.7396 13.1608 25.1524 14.2918 21.8723C14.9202 20.0577 16.8932 18.4944 18.6399 18.4246C18.8536 18.4107 19.3688 18.5084 19.7709 18.634ZM37.8797 18.955C38.9981 19.5273 39.727 20.3369 40.2925 21.5931C40.7323 22.5981 40.7575 22.7237 40.7575 23.9799C40.7449 25.6549 40.4433 26.604 39.5511 27.6788C38.7971 28.6 38.0807 29.0886 37.0377 29.3817C33.8583 30.289 30.6663 26.8274 31.257 23.1285C31.5209 21.4675 32.3377 20.0856 33.5441 19.29C35.0019 18.3269 36.4471 18.2153 37.8797 18.955Z" fill="#F5F5F5"/>
</svg>
