<svg width="29" height="20" viewBox="0 0 29 20" fill="none" xmlns="http://www.w3.org/2000/svg">
<path d="M19.1248 0.07197C16.8918 0.418844 15.124 1.81572 14.5384 3.70947C14.4344 4.03291 14.4126 4.22509 14.4126 4.87197C14.4071 5.29853 14.4235 5.73447 14.4509 5.84697L14.4892 6.05322L14.1225 6.02041C11.7089 5.83291 9.76051 5.35947 7.81759 4.49228C6.02245 3.69072 4.15616 2.42978 3.0123 1.25322C2.83717 1.07509 2.67298 0.939157 2.64561 0.948532C2.61277 0.957907 2.49784 1.14541 2.38291 1.37041C1.59479 2.89384 1.74257 4.65166 2.76602 6.02041C3.06703 6.41884 3.5596 6.89228 3.95913 7.16416L4.3696 7.45009H4.14521C3.66359 7.45009 2.66203 7.21572 2.1202 6.98134C2.00527 6.92978 1.88486 6.88759 1.86297 6.88759C1.78635 6.88759 1.88486 7.74541 2.01074 8.15791C2.50879 9.77509 3.90987 11.0548 5.77617 11.5892C6.08265 11.6782 6.30157 11.7626 6.25779 11.7767C6.0115 11.8563 5.2015 11.9126 4.57211 11.8938L3.86062 11.8657L3.89893 11.9876C3.95913 12.1938 4.36413 12.8501 4.61589 13.1501C5.57914 14.3126 7.16083 15.1095 8.70422 15.2173C8.93408 15.2313 9.12564 15.2595 9.12564 15.2829C9.12564 15.3579 7.89969 16.0095 7.14989 16.3282C5.44231 17.0548 3.75116 17.3688 1.76446 17.3313L0.751953 17.3126L1.03655 17.4673C1.45797 17.6923 2.72771 18.2407 3.2969 18.4423C6.36725 19.5345 9.95206 19.7829 13.3344 19.1407C18.3093 18.1938 22.4086 15.2313 24.4774 11.0829C25.3586 9.31103 25.8019 7.56728 25.8511 5.69228L25.8675 4.84853L26.2671 4.57666C26.7706 4.22509 27.3398 3.76103 27.7721 3.34853C28.1388 2.99228 28.6752 2.37822 28.6424 2.35478C28.6314 2.34541 28.4672 2.39228 28.2757 2.45791C27.5478 2.71103 25.8675 3.07666 25.6158 3.03447C25.5556 3.02509 25.5994 2.97822 25.7581 2.88916C26.174 2.65478 26.9129 2.00322 27.2248 1.60009C27.4985 1.25322 27.898 0.564157 27.898 0.442282C27.898 0.414156 27.5642 0.536032 27.1537 0.709469C26.4094 1.01884 25.4406 1.31884 24.6854 1.47353L24.2858 1.55322L23.952 1.29072C22.6713 0.273531 20.8269 -0.190531 19.1248 0.07197Z" fill="white"/>
</svg>
